name Walk7.mot
datacolumns 19
datarows 30
range 2.18100000 2.21000000
endheader

                time	   L_ground_force_vx	   L_ground_force_vy	   L_ground_force_vz	   L_ground_force_px	   L_ground_force_py	   L_ground_force_pz	   R_ground_force_vx	   R_ground_force_vy	   R_ground_force_vz	   R_ground_force_px	   R_ground_force_py	   R_ground_force_pz	   L_ground_torque_x	   L_ground_torque_y	   L_ground_torque_z	   R_ground_torque_x	   R_ground_torque_y	   R_ground_torque_z	
          2.18100000	          0.00000047	          0.00000135	         -0.00000006	          0.00000000	          0.00000000	          0.00000000	         37.62451822	        166.97822659	          6.90777704	          0.17602615	          0.00000000	          0.06376297	          0.00000000	         -0.00000000	          0.00000000	          0.00000000	         -9.86361786	          0.00000000	
          2.18200000	          0.00000046	          0.00000133	         -0.00000006	          0.00000000	          0.00000000	          0.00000000	         35.90510284	        159.11222763	          6.96511502	          0.17496677	          0.00000000	          0.06325474	          0.00000000	         -0.00000000	          0.00000000	          0.00000000	         -9.52366613	          0.00000000	
          2.18300000	          0.00000045	          0.00000130	         -0.00000006	         -0.00000000	          0.00000000	          0.00000000	         34.20503002	        151.42314475	          6.99686498	          0.17380493	          0.00000000	          0.06271436	          0.00000000	         -0.00000000	          0.00000000	          0.00000000	         -9.18333936	          0.00000000	
          2.18400000	          0.00000043	          0.00000127	         -0.00000006	         -0.00000000	          0.00000000	          0.00000000	         32.52685768	        143.91592333	          7.00405994	          0.17253672	          0.00000000	          0.06214057	          0.00000000	         -0.00000000	          0.00000000	          0.00000000	         -8.84321302	          0.00000000	
          2.18500000	          0.00000041	          0.00000124	         -0.00000006	         -0.00000000	          0.00000000	         -0.00000000	         30.87307514	        136.59495755	          6.98781480	          0.17115834	          0.00000000	          0.06153217	          0.00000000	         -0.00000000	          0.00000000	          0.00000000	         -8.50386317	          0.00000000	
          2.18600000	          0.00000040	          0.00000120	         -0.00000006	         -0.00000000	          0.00000000	         -0.00000000	         29.24609529	        129.46408401	          6.94931796	          0.16966612	          0.00000000	          0.06088800	          0.00000000	         -0.00000000	          0.00000000	          0.00000000	         -8.16586447	          0.00000000	
          2.18700000	          0.00000038	          0.00000117	         -0.00000006	         -0.00000000	          0.00000000	         -0.00000000	         27.64824667	        122.52658232	          6.88982257	          0.16805658	          0.00000000	          0.06020695	          0.00000000	         -0.00000000	          0.00000000	          0.00000000	         -7.82978800	          0.00000000	
          2.18800000	          0.00000037	          0.00000113	         -0.00000005	         -0.00000000	          0.00000000	         -0.00000000	         26.08176521	        115.78518175	          6.81063739	          0.16632644	          0.00000000	          0.05948802	          0.00000000	         -0.00000000	          0.00000000	          0.00000000	         -7.49619868	          0.00000000	
          2.18900000	          0.00000035	          0.00000109	         -0.00000005	         -0.00000000	          0.00000000	         -0.00000000	         24.54878582	        109.24207258	          6.71311733	          0.16447273	          0.00000000	          0.05873027	          0.00000000	         -0.00000000	          0.00000000	          0.00000000	         -7.16565264	          0.00000000	
          2.19000000	          0.00000033	          0.00000105	         -0.00000005	         -0.00000000	          0.00000000	         -0.00000000	         23.05133387	        102.89892125	          6.59865383	          0.16249274	          0.00000000	          0.05793284	          0.00000000	         -0.00000000	          0.00000000	          0.00000000	         -6.83869441	          0.00000000	
          2.19100000	          0.00000032	          0.00000101	         -0.00000005	         -0.00000000	          0.00000000	         -0.00000000	         21.59131659	         96.75688858	          6.46866520	          0.16038416	          0.00000000	          0.05709499	          0.00000000	         -0.00000000	          0.00000000	          0.00000000	         -6.51585426	          0.00000000	
          2.19200000	          0.00000030	          0.00000097	         -0.00000005	         -0.00000000	          0.00000000	         -0.00000000	         20.17051420	         90.81665107	          6.32458693	          0.15814502	          0.00000000	          0.05621608	          0.00000000	         -0.00000000	          0.00000000	          0.00000000	         -6.19764561	          0.00000000	
          2.19300000	          0.00000029	          0.00000093	         -0.00000005	         -0.00000000	          0.00000000	         -0.00000000	         18.79057104	         85.07842486	          6.16786204	          0.15577379	          0.00000000	          0.05529563	          0.00000000	         -0.00000000	          0.00000000	          0.00000000	         -5.88456252	          0.00000000	
          2.19400000	          0.00000027	          0.00000089	         -0.00000005	         -0.00000000	          0.00000000	         -0.00000000	         17.45298685	         79.54199144	          5.99993141	          0.15326939	          0.00000000	          0.05433329	          0.00000000	         -0.00000000	          0.00000000	          0.00000000	         -5.57707701	          0.00000000	
          2.19500000	          0.00000026	          0.00000085	         -0.00000005	         -0.00000000	          0.00000000	         -0.00000000	         16.15910856	         74.20672411	          5.82222433	          0.15063123	          0.00000000	          0.05332891	          0.00000000	         -0.00000000	          0.00000000	          0.00000000	         -5.27563652	          0.00000000	
          2.19600000	          0.00000024	          0.00000081	         -0.00000004	         -0.00000000	          0.00000000	         -0.00000000	         14.91012319	         69.07161416	          5.63614903	          0.14785929	          0.00000000	          0.05228252	          0.00000000	         -0.00000000	          0.00000000	          0.00000000	         -4.98066138	          0.00000000	
          2.19700000	          0.00000023	          0.00000077	         -0.00000004	         -0.00000000	          0.00000000	         -0.00000000	         13.70705170	         64.13529675	          5.44308382	          0.14495415	          0.00000000	          0.05119437	          0.00000000	         -0.00000000	          0.00000000	          0.00000000	         -4.69254250	          0.00000000	
          2.19800000	          0.00000021	          0.00000073	         -0.00000004	         -0.00000000	          0.00000000	         -0.00000000	         12.55074395	         59.39607640	          5.24436848	          0.14191707	          0.00000000	          0.05006489	          0.00000000	         -0.00000000	          0.00000000	          0.00000000	         -4.41163964	          0.00000000	
          2.19900000	          0.00000020	          0.00000069	         -0.00000004	         -0.00000000	          0.00000000	         -0.00000000	         11.44187457	         54.85195251	          5.04129643	          0.13875010	          0.00000000	          0.04889477	          0.00000000	          0.00000000	          0.00000000	          0.00000000	         -4.13828008	          0.00000000	
          2.20000000	          0.00000019	          0.00000065	         -0.00000004	         -0.00000000	          0.00000000	         -0.00000000	         10.38093962	         50.50064505	          4.83510709	          0.13545609	          0.00000000	          0.04768495	          0.00000000	          0.00000000	          0.00000000	          0.00000000	         -3.87275781	          0.00000000	
          2.20100000	          0.00000017	          0.00000061	         -0.00000004	         -0.00000000	          0.00000000	         -0.00000000	          9.36825400	         46.33962033	          4.62697849	          0.13203885	          0.00000000	          0.04643663	          0.00000000	          0.00000000	          0.00000000	          0.00000000	         -3.61533300	          0.00000000	
          2.20200000	          0.00000016	          0.00000058	         -0.00000003	         -0.00000000	          0.00000000	         -0.00000000	          8.40394966	         42.36611702	          4.41801979	          0.12850317	          0.00000000	          0.04515136	          0.00000000	          0.00000000	          0.00000000	          0.00000000	         -3.36623156	          0.00000000	
          2.20300000	          0.00000015	          0.00000054	         -0.00000003	         -0.00000000	          0.00000000	         -0.00000000	          7.48797442	         38.57717242	          4.20926391	          0.12485500	          0.00000000	          0.04383104	          0.00000000	          0.00000000	          0.00000000	          0.00000000	         -3.12564482	          0.00000000	
          2.20400000	          0.00000014	          0.00000051	         -0.00000003	         -0.00000000	          0.00000000	         -0.00000000	          6.62009105	         34.96964939	          4.00166042	          0.12110153	          0.00000000	          0.04247794	          0.00000000	          0.00000000	          0.00000000	          0.00000000	         -2.89372928	          0.00000000	
          2.20500000	          0.00000013	          0.00000047	         -0.00000003	         -0.00000000	          0.00000000	         -0.00000000	          5.79987681	         31.54026377	          3.79606900	          0.11725128	          0.00000000	          0.04109479	          0.00000000	          0.00000000	          0.00000000	          0.00000000	         -2.67060637	          0.00000000	
          2.20600000	          0.00000012	          0.00000044	         -0.00000003	         -0.00000000	          0.00000000	         -0.00000000	          5.02672383	         28.28561121	          3.59325404	          0.11331432	          0.00000000	          0.03968475	          0.00000000	          0.00000000	          0.00000000	          0.00000000	         -2.45636247	          0.00000000	
          2.20700000	          0.00000011	          0.00000041	         -0.00000003	         -0.00000000	          0.00000000	         -0.00000000	          4.29984151	         25.20219037	          3.39388083	          0.10930225	          0.00000000	          0.03825155	          0.00000000	          0.00000000	          0.00000000	          0.00000000	         -2.25104896	          0.00000000	
          2.20800000	          0.00000010	          0.00000038	         -0.00000002	         -0.00000000	          0.00000000	         -0.00000000	          3.61826292	         22.28641866	          3.19851438	          0.10522836	          0.00000000	          0.03679950	          0.00000000	          0.00000000	          0.00000000	          0.00000000	         -2.05468254	          0.00000000	
          2.20900000	          0.00000009	          0.00000035	         -0.00000002	         -0.00000000	          0.00000000	         -0.00000000	          2.98085718	         19.53463594	          3.00762174	          0.10110760	          0.00000000	          0.03533353	          0.00000000	          0.00000000	          0.00000000	          0.00000000	         -1.86724596	          0.00000000	
          2.21000000	          0.00000008	          0.00000032	         -0.00000002	         -0.00000000	          0.00000000	         -0.00000000	          2.38635243	         16.94308617	          2.82158004	          0.09695645	          0.00000000	          0.03385918	          0.00000000	          0.00000000	          0.00000000	          0.00000000	         -1.68868951	          0.00000000	
